<?xml version="1.0" standalone="no"?>
<!DOCTYPE svg PUBLIC "-//W3C//DTD SVG 20010904//EN"
 "http://www.w3.org/TR/2001/REC-SVG-20010904/DTD/svg10.dtd">
<svg version="1.0" xmlns="http://www.w3.org/2000/svg"
 width="358.000000pt" height="66.000000pt" viewBox="0 0 358.000000 66.000000"
 preserveAspectRatio="xMidYMid meet">
<g transform="translate(0.000000,66.000000) scale(0.100000,-0.100000)"
fill="#000000" stroke="none">
<path d="M890 330 c0 -213 4 -330 10 -330 6 0 10 117 10 330 0 213 -4 330 -10
330 -6 0 -10 -117 -10 -330z"/>
<path d="M1102 633 c-38 -8 -99 -74 -111 -120 -32 -117 68 -219 192 -199 69
11 77 20 77 83 0 38 5 62 17 75 15 17 14 18 -37 18 -51 0 -52 -1 -37 -18 25
-28 23 -118 -2 -132 -32 -16 -76 -12 -106 12 -97 76 -58 268 55 268 24 0 80
-27 80 -38 0 -5 7 -17 15 -28 14 -18 15 -16 13 25 -3 39 -6 45 -28 46 -14 1
-43 5 -65 8 -22 3 -50 3 -63 0z"/>
<path d="M1766 608 c-123 -289 -117 -278 -149 -278 -20 0 -82 58 -113 105 -15
24 -15 26 21 60 31 29 36 39 31 62 -14 56 -37 68 -142 71 l-96 4 21 -21 c19
-19 21 -32 21 -140 0 -113 -1 -121 -22 -135 -21 -15 -19 -16 40 -16 l62 0 -20
20 c-15 15 -20 33 -20 70 0 73 25 68 86 -20 l49 -70 95 1 c67 0 88 3 73 9 -27
11 -27 8 -8 54 15 36 16 36 75 36 60 0 60 0 75 -37 15 -35 15 -39 -1 -50 -15
-11 -8 -13 47 -12 51 0 60 2 43 11 -14 7 -41 57 -84 159 -35 82 -65 149 -67
149 -1 0 -9 -15 -17 -32z m-288 -14 c25 -17 29 -60 9 -87 -6 -10 -29 -20 -50
-24 l-37 -6 0 60 c0 33 3 63 7 66 11 12 48 7 71 -9z m321 -96 c12 -28 19 -53
17 -55 -2 -2 -24 -3 -49 -1 l-45 3 22 52 c11 29 24 53 27 53 4 0 16 -23 28
-52z"/>
<path d="M1990 610 c18 -18 20 -33 20 -135 0 -102 -2 -117 -20 -135 l-20 -20
90 0 c98 0 142 13 177 51 71 79 33 221 -66 249 -20 5 -73 10 -118 10 l-83 0
20 -20z m193 -38 c24 -25 31 -41 35 -86 7 -92 -40 -146 -128 -146 l-40 0 0
128 c0 71 3 132 8 136 4 4 27 6 51 3 31 -3 52 -13 74 -35z"/>
<path d="M2317 615 c19 -14 22 -26 25 -130 3 -110 4 -116 31 -142 24 -24 35
-28 87 -28 52 0 63 4 87 28 27 26 28 32 31 142 3 104 6 116 25 130 20 14 18
15 -33 15 -52 0 -54 -1 -32 -16 20 -14 22 -23 22 -109 0 -51 -4 -105 -10 -119
-12 -34 -63 -59 -101 -51 -50 11 -59 36 -59 163 0 107 1 113 23 122 16 6 4 9
-48 9 -64 1 -68 0 -48 -14z"/>
<path d="M2764 573 c-14 -32 -39 -90 -55 -130 -17 -40 -40 -84 -51 -98 l-19
-25 48 0 c37 1 44 3 31 11 -21 12 -22 28 -6 64 10 23 17 25 70 25 57 0 59 -1
75 -36 17 -34 17 -36 -2 -50 -17 -13 -12 -14 44 -14 l62 0 -24 23 c-13 12 -48
81 -78 154 -30 73 -57 133 -62 133 -4 0 -19 -26 -33 -57z m44 -68 c5 -16 13
-38 17 -47 6 -16 1 -18 -39 -18 -53 0 -55 5 -25 69 21 47 29 46 47 -4z"/>
<path d="M2980 594 l0 -37 21 27 c15 19 30 26 55 26 l34 0 0 -129 c0 -123 -1
-131 -22 -145 -21 -15 -19 -16 40 -16 l62 0 -20 20 c-18 18 -20 33 -20 145 l0
125 30 0 c19 0 40 -9 55 -25 l25 -24 0 34 0 35 -130 0 -130 0 0 -36z"/>
<path d="M3270 623 c34 -12 40 -36 40 -150 0 -100 -2 -115 -20 -133 l-20 -20
115 0 115 0 14 33 c17 42 12 46 -19 13 -22 -24 -31 -27 -82 -24 l-58 3 -3 63
-3 62 49 0 c40 0 53 -4 65 -22 15 -22 16 -21 16 32 0 53 -1 54 -16 33 -12 -19
-25 -23 -64 -23 l-49 0 0 60 0 61 62 -3 c55 -3 64 -6 75 -28 12 -24 13 -24 13
13 l0 37 -122 -1 c-68 0 -116 -3 -108 -6z"/>
<path d="M67 578 c12 -13 37 -54 57 -93 43 -86 162 -335 187 -392 l18 -43 108
0 108 0 115 242 c63 134 128 258 144 275 l28 33 -157 0 -156 0 20 -27 c14 -16
19 -34 15 -47 -12 -43 -109 -246 -116 -244 -13 5 -118 231 -118 254 0 12 7 27
15 34 8 7 15 16 15 21 0 5 -68 9 -152 9 l-151 0 20 -22z m233 -43 c0 -23 24
-86 67 -178 36 -78 68 -144 69 -146 8 -9 137 279 141 317 l6 42 88 0 c49 0 89
-2 89 -4 0 -2 -30 -66 -66 -142 -37 -77 -88 -185 -114 -241 l-48 -101 -87 -4
c-48 -2 -90 -1 -95 2 -4 3 -40 75 -80 160 -40 85 -92 194 -116 243 l-44 87 95
0 95 0 0 -35z"/>
<path d="M140 553 c1 -5 49 -109 109 -233 l107 -225 82 0 82 0 109 227 c60
125 107 229 103 232 -3 3 -33 6 -67 6 l-62 0 -6 -34 c-5 -34 -147 -345 -158
-346 -11 0 -151 306 -156 343 l-6 37 -68 0 c-38 0 -69 -3 -69 -7z"/>
<path d="M1071 226 c-21 -25 -8 -59 34 -87 47 -32 53 -62 13 -67 -18 -2 -31 4
-42 20 l-16 22 0 -27 c0 -26 2 -27 50 -27 38 0 52 4 60 19 15 29 -1 60 -45 84
-43 25 -50 44 -22 61 15 9 22 7 37 -11 13 -17 19 -19 23 -9 8 21 -5 32 -44 34
-22 2 -40 -2 -48 -12z"/>
<path d="M1201 218 c0 -13 3 -17 6 -10 2 6 16 12 30 12 24 0 25 -1 21 -80 -3
-74 -2 -80 17 -80 19 0 20 6 17 80 -3 73 -2 80 15 80 11 0 25 -6 32 -12 10
-11 12 -9 9 7 -3 17 -12 20 -76 23 -69 3 -72 2 -71 -20z"/>
<path d="M1380 167 c6 -88 19 -107 71 -107 54 0 69 20 69 90 0 32 3 65 6 74 4
10 1 16 -8 16 -11 0 -13 -13 -10 -60 5 -70 -14 -110 -52 -110 -39 0 -49 23
-44 100 3 65 2 70 -17 70 -19 0 -20 -5 -15 -73z"/>
<path d="M1568 151 l-3 -91 48 0 c79 0 116 29 117 91 0 52 -35 81 -104 87
l-55 4 -3 -91z m115 47 c38 -45 1 -128 -58 -128 -25 0 -25 1 -25 74 0 50 4 76
13 79 19 8 51 -3 70 -25z"/>
<path d="M1765 150 l0 -90 61 0 c54 0 62 3 67 21 5 19 4 20 -12 5 -10 -9 -32
-16 -49 -16 -31 0 -32 2 -32 40 0 33 3 40 19 40 11 0 27 -7 35 -16 15 -14 16
-12 15 18 0 18 -3 27 -6 21 -2 -7 -18 -13 -34 -13 -26 0 -29 3 -29 35 0 32 3
35 29 35 16 0 34 -7 41 -15 15 -19 23 -14 14 9 -5 12 -19 16 -63 16 l-56 0 0
-90z"/>
<path d="M1920 226 c7 -10 10 -42 8 -91 -2 -61 0 -75 12 -75 12 0 14 13 12 67
l-4 68 54 -67 c29 -37 56 -67 61 -67 4 -1 7 32 7 73 0 41 3 81 6 90 4 10 1 16
-8 16 -11 0 -13 -13 -10 -60 2 -33 0 -60 -4 -60 -5 0 -31 27 -57 60 -31 38
-56 60 -69 60 -17 0 -18 -3 -8 -14z"/>
<path d="M2106 224 c-9 -24 -7 -29 6 -16 7 7 20 12 31 12 17 0 18 -7 15 -80
l-3 -80 30 0 c22 0 26 3 17 12 -7 7 -12 41 -12 81 l0 69 30 -4 c20 -3 30 0 30
9 0 21 -136 18 -144 -3z"/>
<path d="M2371 223 c-41 -34 -45 -101 -9 -143 19 -21 81 -28 107 -11 10 6 1 8
-26 4 -34 -4 -43 -2 -57 18 -36 52 -8 139 44 139 11 0 29 -9 40 -20 l20 -20 0
23 c0 19 -6 22 -48 25 -35 2 -55 -2 -71 -15z"/>
<path d="M2547 220 c-34 -27 -44 -78 -23 -118 17 -34 33 -42 81 -42 79 0 112
110 48 160 -33 26 -73 26 -106 0z m85 -7 c13 -11 18 -30 18 -68 0 -58 -12 -75
-52 -75 -34 0 -48 24 -48 81 0 67 41 99 82 62z"/>
<path d="M2720 172 c0 -89 15 -112 74 -112 24 0 48 6 54 13 14 18 22 167 8
167 -8 0 -10 -22 -8 -68 4 -76 -9 -102 -52 -102 -39 0 -49 23 -44 100 3 62 2
70 -14 70 -16 0 -18 -9 -18 -68z"/>
<path d="M2910 226 c7 -10 10 -42 8 -91 -3 -67 -1 -75 15 -75 10 0 15 5 12 10
-9 14 -12 110 -4 110 4 0 29 -27 56 -60 26 -33 51 -60 55 -60 4 0 8 41 10 90
2 75 0 90 -12 90 -12 0 -14 -10 -12 -44 7 -83 1 -86 -52 -18 -31 39 -56 62
-69 62 -16 0 -17 -3 -7 -14z"/>
<path d="M3119 210 c-28 -28 -31 -36 -26 -73 7 -51 36 -77 87 -77 26 0 42 7
56 23 19 22 19 22 -2 5 -48 -41 -109 -7 -109 62 0 71 55 102 103 58 l24 -23
-4 24 c-3 21 -9 25 -51 28 -42 4 -51 1 -78 -27z"/>
<path d="M3288 150 c-3 -84 -2 -90 17 -90 19 0 20 7 20 90 0 78 -2 90 -17 90
-14 0 -17 -14 -20 -90z"/>
<path d="M3375 150 l0 -90 63 0 c34 0 62 4 62 9 0 5 3 18 6 28 5 13 2 12 -11
-5 -13 -17 -25 -22 -48 -20 l-32 3 0 83 c0 75 -2 82 -20 82 -19 0 -20 -7 -20
-90z"/>
</g>
</svg>
